<svg width="238" height="63" viewBox="0 0 238 63" fill="none" xmlns="http://www.w3.org/2000/svg">
<path d="M27.4021 40.6297C26.9065 40.6297 26.4555 40.3438 26.0616 39.7847C22.9548 35.2802 19.8607 30.782 16.7793 26.2965C13.8885 22.0842 10.9977 17.8528 8.10056 13.6151V39.1557C8.10056 39.6259 7.97349 39.9944 7.73206 40.2485C7.49063 40.5026 7.09672 40.6361 6.56304 40.6361H1.48034C0.984775 40.6361 0.609929 40.4963 0.362147 40.2294C0.120719 39.9689 0 39.6132 0 39.1811V2.19813C0 1.78516 0.127068 1.42937 0.387556 1.14347C0.648045 0.844858 1.01654 0.692383 1.48034 0.692383H7.56687C7.86548 0.692383 8.15139 0.762261 8.41188 0.902035C8.67872 1.04181 8.91379 1.25783 9.1171 1.54373C12.135 5.85132 15.1274 10.1271 18.0944 14.3712C20.8772 18.3484 23.6727 22.351 26.4999 26.3791V2.01388C26.5698 1.56914 26.7414 1.25783 27.0082 1.02911C27.2814 0.806743 27.6054 0.692383 27.9739 0.692383H33.082C33.5077 0.692383 33.8826 0.825794 34.1939 1.07993C34.5243 1.35948 34.6894 1.72162 34.6894 2.17271V39.2383C34.6894 39.7593 34.4861 40.6361 33.1329 40.6361H27.4021V40.6297Z" fill="#12131E"/>
<path d="M43.1849 40.6297C42.7973 40.6297 42.4606 40.5217 42.1747 40.2993C41.8633 40.0642 41.7109 39.6958 41.7109 39.2065V2.27437C41.7109 1.25147 42.2382 0.692383 43.1912 0.692383H68.7127C69.2718 0.692383 69.6848 0.863916 69.9389 1.20065C70.174 1.51196 70.2947 1.89952 70.2947 2.35697V7.03304C70.2947 7.4333 70.1549 7.7891 69.8817 8.09406C69.5958 8.41173 69.1829 8.57057 68.6555 8.57057H50.1482V15.9659H64.3416C64.3797 15.9595 64.4433 15.9595 64.5068 15.9595C64.8626 15.9595 65.1612 16.0675 65.3963 16.2708C65.6758 16.5186 65.8219 16.9125 65.8219 17.4462V22.2367C65.8219 22.6179 65.7139 22.961 65.4979 23.2659C65.2565 23.6026 64.888 23.7678 64.3924 23.7678H50.1482V32.7515H69.3481C69.9516 32.7515 70.3582 32.8976 70.5806 33.1963C70.7839 33.4694 70.8792 33.8506 70.8792 34.3653V39.2002C70.8792 40.1214 70.3519 40.6297 69.3989 40.6297H43.1849Z" fill="#12131E"/>
<path d="M135.37 41.2147C133.483 41.2147 131.641 40.9669 129.9 40.4904C128.159 40.0076 126.514 39.3087 124.995 38.4193C123.477 37.5234 122.079 36.4433 120.84 35.2044C119.601 33.9655 118.521 32.5741 117.638 31.062C116.755 29.5563 116.062 27.9108 115.58 26.1699C115.097 24.4291 114.855 22.5866 114.855 20.6997C114.855 18.8254 115.097 16.9893 115.58 15.2421C116.062 13.4949 116.761 11.8367 117.651 10.3246C118.54 8.81251 119.62 7.40839 120.866 6.15678C122.104 4.91151 123.502 3.82509 125.021 2.94197C126.533 2.0652 128.178 1.36634 129.925 0.870783C131.666 0.381573 133.509 0.133789 135.402 0.133789C137.276 0.133789 139.106 0.381573 140.847 0.870783C142.588 1.36634 144.24 2.05885 145.752 2.94197C147.27 3.82509 148.674 4.90516 149.92 6.15678C151.165 7.40204 152.245 8.80615 153.134 10.3246C154.017 11.8431 154.71 13.4949 155.206 15.2421C155.695 17.002 155.949 18.8445 155.949 20.7251C155.949 22.612 155.701 24.4482 155.206 26.1826C154.716 27.9108 154.017 29.5563 153.134 31.0747C152.251 32.5932 151.171 33.9909 149.92 35.2299C148.674 36.4688 147.27 37.5488 145.752 38.4256C144.24 39.3087 142.588 40.0012 140.847 40.4841C139.1 40.967 137.257 41.2147 135.37 41.2147ZM135.37 8.1708C133.642 8.1708 132.016 8.50119 130.529 9.14923C129.049 9.80363 127.746 10.6995 126.66 11.8176C125.573 12.9358 124.703 14.2701 124.074 15.7822C123.451 17.2879 123.134 18.9207 123.134 20.6361C123.134 22.3706 123.451 24.0161 124.074 25.5219C124.703 27.034 125.567 28.3618 126.653 29.4737C127.74 30.5855 129.042 31.4814 130.529 32.1358C132.009 32.7838 133.636 33.1142 135.37 33.1142C137.086 33.1142 138.699 32.7838 140.18 32.1358C141.66 31.4877 142.969 30.5919 144.068 29.4737C145.161 28.3618 146.038 27.0276 146.66 25.5219C147.283 24.0161 147.601 22.3706 147.601 20.6361C147.601 18.9207 147.283 17.2879 146.66 15.7822C146.031 14.2764 145.161 12.9422 144.062 11.8176C142.963 10.6931 141.654 9.79727 140.18 9.14287C138.699 8.50118 137.079 8.1708 135.37 8.1708Z" fill="#12131E"/>
<path d="M181.359 41.2147C179.472 41.2147 177.63 40.9669 175.889 40.4904C174.148 40.0076 172.496 39.3087 170.984 38.4193C169.472 37.5298 168.074 36.4497 166.829 35.2044C165.59 33.9655 164.516 32.5741 163.627 31.062C162.744 29.5499 162.051 27.9044 161.568 26.1699C161.086 24.4291 160.844 22.5866 160.844 20.6997C160.844 18.8318 161.092 16.9957 161.568 15.2421C162.051 13.4949 162.744 11.8431 163.633 10.3246C164.529 8.80615 165.609 7.40204 166.848 6.15678C168.087 4.91151 169.485 3.82509 171.003 2.94197C172.515 2.05885 174.161 1.36634 175.908 0.870783C177.649 0.381573 179.491 0.133789 181.385 0.133789C183.259 0.133789 185.089 0.381573 186.83 0.870783C188.57 1.36634 190.222 2.05885 191.734 2.94197C193.253 3.82509 194.651 4.90516 195.902 6.15678C197.154 7.40839 198.234 8.81251 199.111 10.3246C199.994 11.8431 200.693 13.4949 201.182 15.2421C201.671 16.9957 201.925 18.8381 201.925 20.7251C201.925 22.612 201.677 24.4545 201.182 26.1826C200.693 27.9108 199.994 29.5563 199.111 31.0747C198.227 32.5868 197.147 33.9846 195.896 35.2299C194.644 36.4688 193.246 37.5488 191.728 38.4256C190.21 39.3087 188.564 40.0012 186.823 40.4841C185.089 40.967 183.246 41.2147 181.359 41.2147ZM181.359 8.1708C179.631 8.1708 178.005 8.50119 176.524 9.14923C175.044 9.79728 173.742 10.6995 172.655 11.8176C171.562 12.9422 170.698 14.2764 170.069 15.7822C169.44 17.2879 169.129 18.9207 169.129 20.6361C169.129 22.3706 169.447 24.0161 170.069 25.5219C170.692 27.0276 171.562 28.3618 172.649 29.4737C173.735 30.5855 175.038 31.4814 176.524 32.1358C178.005 32.7838 179.631 33.1142 181.359 33.1142C183.075 33.1142 184.688 32.7838 186.169 32.1358C187.649 31.4877 188.958 30.5919 190.057 29.4737C191.15 28.3618 192.027 27.034 192.649 25.5219C193.272 24.0098 193.59 22.3706 193.59 20.6361C193.59 18.9207 193.272 17.2879 192.649 15.7822C192.02 14.2701 191.15 12.9358 190.051 11.8176C188.952 10.6931 187.643 9.79727 186.162 9.14287C184.688 8.50118 183.068 8.1708 181.359 8.1708Z" fill="#12131E"/>
<path d="M221.861 41.1318C220.482 41.1318 219.097 40.9666 217.738 40.6489C216.378 40.3312 215.056 39.8674 213.811 39.2766C212.566 38.6921 211.365 37.9741 210.253 37.1418C209.135 36.3159 208.125 35.3629 207.248 34.3273L207.331 34.2574L207.21 34.2892C206.765 33.7555 206.543 33.2726 206.543 32.8215C206.543 32.5674 206.613 32.326 206.746 32.1036C206.861 31.9067 207.038 31.6906 207.267 31.4619L208.138 30.5915C208.417 30.3501 208.697 30.0959 208.989 29.8164C209.3 29.5241 209.605 29.2636 209.917 29.0286C210.221 28.7935 210.507 28.5902 210.774 28.425C211.079 28.2344 211.34 28.1391 211.562 28.1391C211.88 28.1391 212.172 28.2408 212.439 28.4377C212.661 28.6092 212.852 28.7681 213.004 28.9142L213.392 29.3018C213.919 29.7719 214.497 30.223 215.12 30.655C215.876 31.176 216.664 31.6462 217.452 32.0464C218.246 32.453 219.04 32.7771 219.821 33.0058C220.59 33.2345 221.321 33.3489 221.994 33.3489C222.928 33.3489 223.818 33.2282 224.631 32.9931C225.438 32.758 226.143 32.4213 226.734 31.9956C227.312 31.5763 227.769 31.0617 228.1 30.4708C228.424 29.8863 228.589 29.2255 228.589 28.5076C228.589 27.8087 228.379 27.2051 227.973 26.7096C227.541 26.1886 226.963 25.7248 226.264 25.3309C225.546 24.9307 224.72 24.5749 223.818 24.2826C222.896 23.984 221.969 23.7044 221.035 23.4376C218.875 22.7832 216.962 22.0653 215.336 21.3029C213.703 20.5405 212.318 19.6637 211.225 18.698C210.12 17.7323 209.281 16.6268 208.728 15.4133C208.176 14.2061 207.89 12.8275 207.89 11.3281C207.89 9.64442 208.233 8.08784 208.913 6.70281C209.592 5.31777 210.571 4.11062 211.816 3.12585C213.055 2.14743 214.567 1.37232 216.314 0.819572C218.049 0.273181 220.012 0 222.153 0C223.786 0 225.463 0.260483 227.141 0.768753C228.824 1.27702 230.393 1.98859 231.823 2.88442C232.255 3.15126 232.693 3.45623 233.144 3.79931C233.596 4.14239 234.009 4.48548 234.383 4.84127C234.765 5.19706 235.089 5.55285 235.336 5.88957C235.616 6.27078 235.756 6.60751 235.756 6.90612C235.756 7.16025 235.692 7.42073 235.565 7.68757C235.444 7.94171 235.292 8.16407 235.114 8.36103L233.773 9.79054V9.76514L233.494 10.0637C233.202 10.3751 232.909 10.6483 232.623 10.896C232.331 11.1438 232.071 11.3471 231.829 11.5123C231.543 11.7093 231.296 11.8046 231.073 11.8046C230.787 11.8046 230.521 11.7347 230.279 11.5886C230.076 11.4678 229.841 11.3027 229.58 11.0994C229.174 10.7245 228.748 10.3624 228.233 9.96209C227.719 9.56818 227.134 9.19333 226.505 8.85025C225.87 8.50717 225.177 8.21491 224.453 7.97348C223.735 7.73841 222.998 7.61769 222.261 7.61769C221.308 7.61769 220.45 7.7257 219.726 7.93536C219.008 8.14502 218.398 8.43092 217.915 8.78671C217.445 9.13615 217.083 9.54912 216.842 10.0193C216.6 10.4831 216.48 10.985 216.48 11.5187C216.48 12.0841 216.651 12.567 217.001 12.9863C217.369 13.431 217.884 13.8313 218.525 14.1807C219.186 14.5429 219.961 14.8796 220.819 15.1782C221.696 15.4895 222.623 15.7881 223.589 16.0867C224.707 16.4235 225.813 16.7856 226.912 17.1732C228.011 17.5607 229.078 18.0055 230.082 18.4947C231.086 18.9839 232.039 19.5303 232.916 20.1338C233.799 20.7374 234.574 21.4426 235.216 22.2305C235.857 23.0119 236.372 23.9077 236.747 24.8862C237.122 25.8646 237.312 26.9764 237.312 28.1899C237.312 30.1531 236.906 31.9575 236.111 33.5458C235.317 35.1278 234.212 36.5065 232.814 37.631C231.423 38.7492 229.771 39.626 227.897 40.2232C226.029 40.8268 223.996 41.1318 221.861 41.1318Z" fill="#12131E"/>
<path d="M97.5508 29.7723L104.603 39.9377C104.838 40.2744 105.219 40.4714 105.626 40.4714H113.161C113.815 40.4714 114.19 39.7344 113.815 39.207L102.284 22.9297L97.5508 29.7723Z" fill="#12131E"/>
<path d="M102.284 18.5071L113.898 2.10904C114.273 1.57536 113.892 0.844727 113.244 0.844727H105.715C105.308 0.844727 104.927 1.04168 104.692 1.37841L97.5508 11.6645L102.284 18.5071Z" fill="#12131E"/>
<path d="M84.2986 0.844727H77.24C76.503 0.844727 76.071 1.67703 76.4967 2.2806L89.5274 20.7118L63.0275 58.3936C62.6018 58.9972 63.0338 59.8295 63.7708 59.8295H70.9565C71.5347 59.8295 72.0747 59.5436 72.4051 59.0734L98.9685 20.7181L85.7472 1.60078C85.4168 1.13063 84.8768 0.844727 84.2986 0.844727Z" fill="#F65630"/>
<path d="M97.342 46.242L94.514 56H93.086L90.818 48.146L88.466 56L87.052 56.014L84.322 46.242H85.68L87.808 54.516L90.16 46.242H91.588L93.828 54.488L95.97 46.242H97.342ZM105.736 51.87C105.736 52.1127 105.722 52.3693 105.694 52.64H99.5622C99.6089 53.396 99.8655 53.9887 100.332 54.418C100.808 54.838 101.382 55.048 102.054 55.048C102.605 55.048 103.062 54.922 103.426 54.67C103.8 54.4087 104.061 54.0633 104.21 53.634H105.582C105.377 54.3713 104.966 54.9733 104.35 55.44C103.734 55.8973 102.969 56.126 102.054 56.126C101.326 56.126 100.673 55.9627 100.094 55.636C99.5249 55.3093 99.0769 54.8473 98.7502 54.25C98.4235 53.6433 98.2602 52.9433 98.2602 52.15C98.2602 51.3567 98.4189 50.6613 98.7362 50.064C99.0535 49.4667 99.4969 49.0093 100.066 48.692C100.645 48.3653 101.308 48.202 102.054 48.202C102.782 48.202 103.426 48.3607 103.986 48.678C104.546 48.9953 104.976 49.434 105.274 49.994C105.582 50.5447 105.736 51.17 105.736 51.87ZM104.42 51.604C104.42 51.1187 104.313 50.7033 104.098 50.358C103.884 50.0033 103.59 49.7373 103.216 49.56C102.852 49.3733 102.446 49.28 101.998 49.28C101.354 49.28 100.804 49.4853 100.346 49.896C99.8982 50.3067 99.6415 50.876 99.5762 51.604H104.42ZM108.692 49.756C108.953 49.2987 109.336 48.9253 109.84 48.636C110.344 48.3467 110.918 48.202 111.562 48.202C112.253 48.202 112.873 48.3653 113.424 48.692C113.975 49.0187 114.409 49.4807 114.726 50.078C115.043 50.666 115.202 51.352 115.202 52.136C115.202 52.9107 115.043 53.6013 114.726 54.208C114.409 54.8147 113.97 55.286 113.41 55.622C112.859 55.958 112.243 56.126 111.562 56.126C110.899 56.126 110.316 55.9813 109.812 55.692C109.317 55.4027 108.944 55.034 108.692 54.586V56H107.418V45.64H108.692V49.756ZM113.9 52.136C113.9 51.5573 113.783 51.0533 113.55 50.624C113.317 50.1947 112.999 49.868 112.598 49.644C112.206 49.42 111.772 49.308 111.296 49.308C110.829 49.308 110.395 49.4247 109.994 49.658C109.602 49.882 109.285 50.2133 109.042 50.652C108.809 51.0813 108.692 51.5807 108.692 52.15C108.692 52.7287 108.809 53.2373 109.042 53.676C109.285 54.1053 109.602 54.4367 109.994 54.67C110.395 54.894 110.829 55.006 111.296 55.006C111.772 55.006 112.206 54.894 112.598 54.67C112.999 54.4367 113.317 54.1053 113.55 53.676C113.783 53.2373 113.9 52.724 113.9 52.136ZM119.595 56.126C119.007 56.126 118.479 56.028 118.013 55.832C117.546 55.6267 117.177 55.3467 116.907 54.992C116.636 54.628 116.487 54.2127 116.459 53.746H117.775C117.812 54.1287 117.989 54.4413 118.307 54.684C118.633 54.9267 119.058 55.048 119.581 55.048C120.066 55.048 120.449 54.9407 120.729 54.726C121.009 54.5113 121.149 54.2407 121.149 53.914C121.149 53.578 120.999 53.3307 120.701 53.172C120.402 53.004 119.94 52.8407 119.315 52.682C118.745 52.5327 118.279 52.3833 117.915 52.234C117.56 52.0753 117.252 51.8467 116.991 51.548C116.739 51.24 116.613 50.8387 116.613 50.344C116.613 49.952 116.729 49.5927 116.963 49.266C117.196 48.9393 117.527 48.6827 117.957 48.496C118.386 48.3 118.876 48.202 119.427 48.202C120.276 48.202 120.962 48.4167 121.485 48.846C122.007 49.2753 122.287 49.8633 122.325 50.61H121.051C121.023 50.2087 120.859 49.8867 120.561 49.644C120.271 49.4013 119.879 49.28 119.385 49.28C118.927 49.28 118.563 49.378 118.293 49.574C118.022 49.77 117.887 50.0267 117.887 50.344C117.887 50.596 117.966 50.806 118.125 50.974C118.293 51.1327 118.498 51.2633 118.741 51.366C118.993 51.4593 119.338 51.5667 119.777 51.688C120.327 51.8373 120.775 51.9867 121.121 52.136C121.466 52.276 121.76 52.4907 122.003 52.78C122.255 53.0693 122.385 53.4473 122.395 53.914C122.395 54.334 122.278 54.712 122.045 55.048C121.811 55.384 121.48 55.65 121.051 55.846C120.631 56.0327 120.145 56.126 119.595 56.126ZM124.851 47.082C124.609 47.082 124.403 46.998 124.235 46.83C124.067 46.662 123.983 46.4567 123.983 46.214C123.983 45.9713 124.067 45.766 124.235 45.598C124.403 45.43 124.609 45.346 124.851 45.346C125.085 45.346 125.281 45.43 125.439 45.598C125.607 45.766 125.691 45.9713 125.691 46.214C125.691 46.4567 125.607 46.662 125.439 46.83C125.281 46.998 125.085 47.082 124.851 47.082ZM125.467 48.328V56H124.193V48.328H125.467ZM129.193 49.378V53.9C129.193 54.2733 129.272 54.5393 129.431 54.698C129.589 54.8473 129.865 54.922 130.257 54.922H131.195V56H130.047C129.337 56 128.805 55.8367 128.451 55.51C128.096 55.1833 127.919 54.6467 127.919 53.9V49.378H126.925V48.328H127.919V46.396H129.193V48.328H131.195V49.378H129.193ZM139.738 51.87C139.738 52.1127 139.724 52.3693 139.696 52.64H133.564C133.611 53.396 133.867 53.9887 134.334 54.418C134.81 54.838 135.384 55.048 136.056 55.048C136.607 55.048 137.064 54.922 137.428 54.67C137.801 54.4087 138.063 54.0633 138.212 53.634H139.584C139.379 54.3713 138.968 54.9733 138.352 55.44C137.736 55.8973 136.971 56.126 136.056 56.126C135.328 56.126 134.675 55.9627 134.096 55.636C133.527 55.3093 133.079 54.8473 132.752 54.25C132.425 53.6433 132.262 52.9433 132.262 52.15C132.262 51.3567 132.421 50.6613 132.738 50.064C133.055 49.4667 133.499 49.0093 134.068 48.692C134.647 48.3653 135.309 48.202 136.056 48.202C136.784 48.202 137.428 48.3607 137.988 48.678C138.548 48.9953 138.977 49.434 139.276 49.994C139.584 50.5447 139.738 51.17 139.738 51.87ZM138.422 51.604C138.422 51.1187 138.315 50.7033 138.1 50.358C137.885 50.0033 137.591 49.7373 137.218 49.56C136.854 49.3733 136.448 49.28 136 49.28C135.356 49.28 134.805 49.4853 134.348 49.896C133.9 50.3067 133.643 50.876 133.578 51.604H138.422ZM150.29 56L147.966 52.01H146.426V56H145.152V46.242H148.302C149.04 46.242 149.66 46.368 150.164 46.62C150.678 46.872 151.06 47.2127 151.312 47.642C151.564 48.0713 151.69 48.5613 151.69 49.112C151.69 49.784 151.494 50.3767 151.102 50.89C150.72 51.4033 150.141 51.744 149.366 51.912L151.816 56H150.29ZM146.426 50.988H148.302C148.993 50.988 149.511 50.82 149.856 50.484C150.202 50.1387 150.374 49.6813 150.374 49.112C150.374 48.5333 150.202 48.0853 149.856 47.768C149.52 47.4507 149.002 47.292 148.302 47.292H146.426V50.988ZM160.67 51.87C160.67 52.1127 160.656 52.3693 160.628 52.64H154.496C154.542 53.396 154.799 53.9887 155.266 54.418C155.742 54.838 156.316 55.048 156.988 55.048C157.538 55.048 157.996 54.922 158.36 54.67C158.733 54.4087 158.994 54.0633 159.144 53.634H160.516C160.31 54.3713 159.9 54.9733 159.284 55.44C158.668 55.8973 157.902 56.126 156.988 56.126C156.26 56.126 155.606 55.9627 155.028 55.636C154.458 55.3093 154.01 54.8473 153.684 54.25C153.357 53.6433 153.194 52.9433 153.194 52.15C153.194 51.3567 153.352 50.6613 153.67 50.064C153.987 49.4667 154.43 49.0093 155 48.692C155.578 48.3653 156.241 48.202 156.988 48.202C157.716 48.202 158.36 48.3607 158.92 48.678C159.48 48.9953 159.909 49.434 160.208 49.994C160.516 50.5447 160.67 51.17 160.67 51.87ZM159.354 51.604C159.354 51.1187 159.246 50.7033 159.032 50.358C158.817 50.0033 158.523 49.7373 158.15 49.56C157.786 49.3733 157.38 49.28 156.932 49.28C156.288 49.28 155.737 49.4853 155.28 49.896C154.832 50.3067 154.575 50.876 154.51 51.604H159.354ZM165.207 54.824L167.587 48.328H168.945L165.935 56H164.451L161.441 48.328H162.813L165.207 54.824ZM170.857 47.082C170.614 47.082 170.409 46.998 170.241 46.83C170.073 46.662 169.989 46.4567 169.989 46.214C169.989 45.9713 170.073 45.766 170.241 45.598C170.409 45.43 170.614 45.346 170.857 45.346C171.09 45.346 171.286 45.43 171.445 45.598C171.613 45.766 171.697 45.9713 171.697 46.214C171.697 46.4567 171.613 46.662 171.445 46.83C171.286 46.998 171.09 47.082 170.857 47.082ZM171.473 48.328V56H170.199V48.328H171.473ZM180.644 51.87C180.644 52.1127 180.63 52.3693 180.602 52.64H174.47C174.517 53.396 174.774 53.9887 175.24 54.418C175.716 54.838 176.29 55.048 176.962 55.048C177.513 55.048 177.97 54.922 178.334 54.67C178.708 54.4087 178.969 54.0633 179.118 53.634H180.49C180.285 54.3713 179.874 54.9733 179.258 55.44C178.642 55.8973 177.877 56.126 176.962 56.126C176.234 56.126 175.581 55.9627 175.002 55.636C174.433 55.3093 173.985 54.8473 173.658 54.25C173.332 53.6433 173.168 52.9433 173.168 52.15C173.168 51.3567 173.327 50.6613 173.644 50.064C173.962 49.4667 174.405 49.0093 174.974 48.692C175.553 48.3653 176.216 48.202 176.962 48.202C177.69 48.202 178.334 48.3607 178.894 48.678C179.454 48.9953 179.884 49.434 180.182 49.994C180.49 50.5447 180.644 51.17 180.644 51.87ZM179.328 51.604C179.328 51.1187 179.221 50.7033 179.006 50.358C178.792 50.0033 178.498 49.7373 178.124 49.56C177.76 49.3733 177.354 49.28 176.906 49.28C176.262 49.28 175.712 49.4853 175.254 49.896C174.806 50.3067 174.55 50.876 174.484 51.604H179.328ZM192.546 48.328L190.152 56H188.836L186.988 49.91L185.14 56H183.824L181.416 48.328H182.718L184.482 54.768L186.386 48.328H187.688L189.55 54.782L191.286 48.328H192.546ZM200.81 51.87C200.81 52.1127 200.796 52.3693 200.768 52.64H194.636C194.683 53.396 194.94 53.9887 195.406 54.418C195.882 54.838 196.456 55.048 197.128 55.048C197.679 55.048 198.136 54.922 198.5 54.67C198.874 54.4087 199.135 54.0633 199.284 53.634H200.656C200.451 54.3713 200.04 54.9733 199.424 55.44C198.808 55.8973 198.043 56.126 197.128 56.126C196.4 56.126 195.747 55.9627 195.168 55.636C194.599 55.3093 194.151 54.8473 193.824 54.25C193.498 53.6433 193.334 52.9433 193.334 52.15C193.334 51.3567 193.493 50.6613 193.81 50.064C194.128 49.4667 194.571 49.0093 195.14 48.692C195.719 48.3653 196.382 48.202 197.128 48.202C197.856 48.202 198.5 48.3607 199.06 48.678C199.62 48.9953 200.05 49.434 200.348 49.994C200.656 50.5447 200.81 51.17 200.81 51.87ZM199.494 51.604C199.494 51.1187 199.387 50.7033 199.172 50.358C198.958 50.0033 198.664 49.7373 198.29 49.56C197.926 49.3733 197.52 49.28 197.072 49.28C196.428 49.28 195.878 49.4853 195.42 49.896C194.972 50.3067 194.716 50.876 194.65 51.604H199.494ZM203.766 49.574C203.99 49.1353 204.307 48.7947 204.718 48.552C205.138 48.3093 205.647 48.188 206.244 48.188V49.504H205.908C204.48 49.504 203.766 50.2787 203.766 51.828V56H202.492V48.328H203.766V49.574Z" fill="black"/>
</svg>
